<?xml version="1.0" encoding="UTF-8"?>
<svg width="18px" height="16px" viewBox="0 0 18 16" version="1.1" xmlns="http://www.w3.org/2000/svg" xmlns:xlink="http://www.w3.org/1999/xlink">
    <!-- Generator: Sketch 54.1 (76490) - https://sketchapp.com -->
    <title>Icons/Outlined/Arrow right</title>
    <desc>Created with Sketch.</desc>
    <g id="Landing-Page" stroke="none" stroke-width="1" fill="none" fill-rule="evenodd">
        <g id="Landing-Desktop" transform="translate(-1214.000000, -2343.000000)">
            <g id="Stacked-Group-2" transform="translate(174.000000, 1951.000000)">
                <g id="Group-2-Copy-2" transform="translate(766.000000, 0.000000)">
                    <g id="Group" transform="translate(255.000000, 372.000000)">
                        <g id="Icons/Outlined/Arrow-right" transform="translate(16.000000, 16.000000)">
                            <g id="icon_arrow_right">
                                <rect id="Icon-boundaries" x="0" y="0" width="24" height="24"></rect>
                                <path d="M6.41421356,13 L11.7071068,18.2928932 C12.0976311,18.6834175 12.0976311,19.3165825 11.7071068,19.7071068 C11.3165825,20.0976311 10.6834175,20.0976311 10.2928932,19.7071068 L3.29289322,12.7071068 C2.90236893,12.3165825 2.90236893,11.6834175 3.29289322,11.2928932 L10.2928932,4.29289322 C10.6834175,3.90236893 11.3165825,3.90236893 11.7071068,4.29289322 C12.0976311,4.68341751 12.0976311,5.31658249 11.7071068,5.70710678 L6.41421356,11 L20,11 C20.5522847,11 21,11.4477153 21,12 C21,12.5522847 20.5522847,13 20,13 L6.41421356,13 Z" id="icon-color" fill="#FFFFFF" transform="translate(12.000000, 12.000000) scale(-1, 1) translate(-12.000000, -12.000000) "></path>
                            </g>
                        </g>
                    </g>
                </g>
            </g>
        </g>
    </g>
</svg>